<svg width="519" height="207" viewBox="0 0 519 207" fill="none" xmlns="http://www.w3.org/2000/svg">
<g clip-path="url(#clip0_19_46)">
<path d="M0 167.088C0 193.697 21.4429 207 64.5366 207H454.464C497.556 207 519 193.697 519 167.088V39.9131C519 13.3044 497.556 0 454.464 0H114.917C79.3176 0 58.7077 12.9131 48.0903 33.0001L7.07822 111C2.08183 120.131 0 127.826 0 138.131V167.088ZM203.395 101.218V61.0436C203.395 53.2176 210.889 48.6523 223.173 48.6523H415.949C428.441 48.6523 435.728 53.2176 435.728 61.0436V101.218C435.728 108.653 428.441 113.218 415.949 113.218H223.173C210.889 113.218 203.395 108.653 203.395 101.218ZM74.5294 113.218C62.8713 113.218 56.6258 107.348 61.414 98.0872L82.4405 58.0436C85.3551 52.3046 89.935 48.6523 104.716 48.6523H128.449C140.732 48.6523 148.226 53.2176 148.226 61.0436V101.218C148.226 108.653 140.732 113.218 128.449 113.218H74.5294Z" fill="#FF4F6F"/>
</g>
<defs>
<clipPath id="clip0_19_46">
<rect width="519" height="207" fill="white"/>
</clipPath>
</defs>
</svg>
